<svg id="Layer_1" enable-background="new 0 0 512 512" height="512" viewBox="0 0 512 512" width="512" xmlns="http://www.w3.org/2000/svg" xmlns:xlink="http://www.w3.org/1999/xlink"><linearGradient id="SVGID_1_" gradientUnits="userSpaceOnUse" x1="256" x2="256" y1=".06" y2="511.94"><stop offset="0" stop-color="#2af598"/><stop offset="1" stop-color="#009efd"/></linearGradient><path d="m162.791 445.632c.782 2.675 1.209 5.501 1.209 8.428 0 16.569-13.431 30-30 30s-30-13.431-30-30c0-14.8 10.721-27.089 24.818-29.545l26.513-42.391c-11.79-9.372-22.244-20.355-31.017-32.621l-43.269 23.09c-3.341 12.922-15.078 22.467-29.045 22.467-16.569 0-30-13.431-30-30s13.431-30 30-30c3.775 0 7.384.704 10.712 1.977l42.545-22.704c-4.722-12.118-8.008-24.947-9.667-38.273h-43.235c-5.493 6.136-13.471 10-22.355 10-16.569 0-30-13.431-30-30s13.431-30 30-30c8.884 0 16.862 3.864 22.355 10h43.232c1.621-13.023 4.809-25.565 9.359-37.439l-41.82-22.317c-3.164 1.134-6.572 1.756-10.125 1.756-16.569 0-30-13.431-30-30s13.431-30 30-30c14.185 0 26.062 9.847 29.188 23.077l41.609 22.205c9.602-13.583 21.254-25.617 34.499-35.655l-22.196-38.21c-13.743-2.742-24.101-14.868-24.101-29.417 0-16.569 13.431-30 30-30s30 13.431 30 30c0 3.186-.501 6.255-1.421 9.136l22.342 38.461c13.523-5.71 27.984-9.615 43.079-11.431v-43.811c-6.136-5.493-10-13.471-10-22.355 0-16.569 13.431-30 30-30s30 13.431 30 30c0 8.884-3.864 16.862-10 22.355v43.99c16.757 2.157 32.712 6.896 47.457 13.812l25.076-40.692c-.99-2.977-1.533-6.157-1.533-9.465 0-16.569 13.431-30 30-30s30 13.431 30 30c0 14.418-10.172 26.455-23.73 29.339l-25.986 42.17c11.386 9.343 21.472 20.21 29.943 32.294l42.585-22.725c3.127-13.229 15.003-23.077 29.188-23.077 16.569 0 30 13.431 30 30s-13.431 30-30 30c-3.554 0-6.962-.622-10.125-1.756l-112.458 60.013-18.832-35.29 34.026-18.158c-18.15-23.82-44.913-40.729-75.61-46.033v39.224h-40v-39.447c-31.033 5.008-58.149 21.858-76.553 45.752l35.969 19.195-18.832 35.29-35.985-19.203c-4.052 12.074-6.253 24.991-6.253 38.413 0 13.736 2.307 26.942 6.544 39.258l35.694-19.048 18.832 35.29-35.422 18.903c18.394 23.516 45.281 40.086 76.006 45.044v-41.448h40l-.164 57.836-27.337 25.164-12.5-1.166c-16.383-1.971-32.014-6.417-46.515-12.943zm64.209-188.572c0 16.569 13.431 30 30 30s30-13.431 30-30-13.431-30-30-30-30 13.431-30 30zm285 99c0 56.794-46.206 103-103 103-23.888 0-45.901-8.176-63.392-21.874l-83.244 74.754-26.727-29.761 83.818-75.269c-8.559-15.011-13.455-32.369-13.455-50.85 0-56.794 46.206-103 103-103s103 46.205 103 103zm-40 0c0-34.738-28.262-63-63-63s-63 28.262-63 63 28.262 63 63 63 63-28.262 63-63z" fill="url(#SVGID_1_)"/></svg>